<?xml version="1.0" encoding="UTF-8" standalone="no"?>
<!-- Created with Inkscape (http://www.inkscape.org/) -->

<svg
   xmlns:dc="http://purl.org/dc/elements/1.1/"
   xmlns:cc="http://creativecommons.org/ns#"
   xmlns:rdf="http://www.w3.org/1999/02/22-rdf-syntax-ns#"
   xmlns:svg="http://www.w3.org/2000/svg"
   xmlns="http://www.w3.org/2000/svg"
   xmlns:sodipodi="http://sodipodi.sourceforge.net/DTD/sodipodi-0.dtd"
   xmlns:inkscape="http://www.inkscape.org/namespaces/inkscape"
   width="64"
   height="64"
   viewBox="0 0 16.933332 16.933332"
   version="1.1"
   id="svg5"
   inkscape:version="0.92.4 (5da689c313, 2019-01-14)"
   sodipodi:docname="help.svg">
  <metadata
     id="metadata11">
    <rdf:RDF>
      <cc:Work
         rdf:about="">
        <dc:format>image/svg+xml</dc:format>
        <dc:type
           rdf:resource="http://purl.org/dc/dcmitype/StillImage" />
        <dc:title />
      </cc:Work>
    </rdf:RDF>
  </metadata>
  <sodipodi:namedview
     id="namedview7"
     pagecolor="#ffffff"
     bordercolor="#666666"
     borderopacity="1.0"
     inkscape:pageshadow="2"
     inkscape:pageopacity="0.0"
     inkscape:pagecheckerboard="0"
     inkscape:document-units="mm"
     showgrid="true"
     width="32mm"
     units="px"
     inkscape:zoom="5.7157125"
     inkscape:cx="-26.391523"
     inkscape:cy="44.038494"
     inkscape:window-width="1920"
     inkscape:window-height="1017"
     inkscape:window-x="-8"
     inkscape:window-y="-8"
     inkscape:window-maximized="1"
     inkscape:current-layer="layer1"
     showguides="false">
    <inkscape:grid
       type="xygrid"
       id="grid824"
       dotted="true" />
  </sodipodi:namedview>
  <defs
     id="defs2" />
  <g
     inkscape:label="Layer 1"
     inkscape:groupmode="layer"
     id="layer1">
    <circle
       id="path859"
       style="fill:#000000;stroke:#ffffff;stroke-width:0.26458299;stroke-opacity:1"
       cx="3.4127877"
       cy="10.283077"
       r="0.0061755623" />
    <circle
       id="path861"
       style="fill:#000000;stroke:#ffffff;stroke-width:0.26458299;stroke-opacity:1"
       cx="3.4127877"
       cy="10.283077"
       r="0.0061755623" />
    <g
       aria-label="?"
       style="font-style:normal;font-weight:normal;font-size:10.58333302px;line-height:1.25;font-family:sans-serif;letter-spacing:0px;word-spacing:0px;fill:#ffffff;fill-opacity:1;stroke:none;stroke-width:0.26458332"
       id="text832"
       transform="rotate(5,9.1566071,8.4669407)">
      <path
         d="m 7.5319002,10.96808 q -0.082682,-0.214974 -0.1322916,-0.479557 -0.041341,-0.272852 -0.041341,-0.5126304 0,-0.3803385 0.074414,-0.6945312 Q 7.5070955,8.9671687 7.6559237,8.6943172 7.8047518,8.4131974 8.027994,8.1651505 8.2512361,7.9088354 8.5488924,7.6607886 8.8630851,7.3962053 9.0945955,7.1729631 9.3343741,6.9414527 9.4997387,6.7182105 9.6651032,6.4867001 9.7477855,6.2469215 q 0.082682,-0.2480469 0.082682,-0.5457031 0,-0.2563151 -0.09095,-0.4712891 Q 9.6485668,5.0066871 9.474934,4.8495908 9.3095694,4.6924945 9.0615225,4.6015439 q -0.2397786,-0.09095 -0.5374348,-0.09095 -0.6449219,0 -1.3394531,0.2728516 Q 6.4901034,5.0480283 5.8699863,5.5937314 V 3.1049945 Q 6.5066399,2.724656 7.2590487,2.5344868 8.0114575,2.3443175 8.8134757,2.3443175 q 0.7689453,0 1.4304033,0.1736328 0.661459,0.1653646 1.149284,0.5291666 0.496094,0.3638021 0.768945,0.9343099 0.28112,0.5622395 0.28112,1.3559895 0,0.504362 -0.115755,0.9177734 Q 12.211718,6.6603329 11.988476,7.024135 11.765233,7.387937 11.434504,7.7269344 11.103775,8.0576636 10.673827,8.4131974 10.384439,8.652976 10.161197,8.8596817 9.946223,9.0663875 9.7973949,9.2730932 9.656835,9.4715307 9.582421,9.7030411 9.508007,9.9262832 9.508007,10.215671 q 0,0.198438 0.049609,0.405143 0.057878,0.206706 0.1488281,0.347266 z m 1.2071614,3.621484 q -0.6614583,0 -1.0996744,-0.396875 -0.4382161,-0.413411 -0.4382161,-0.975651 0,-0.578776 0.4382161,-0.967382 0.4382161,-0.388607 1.0996744,-0.388607 0.6531901,0 1.083138,0.388607 0.4299474,0.380338 0.4299474,0.967382 0,0.595313 -0.4216792,0.983919 -0.4299479,0.388607 -1.0914062,0.388607 z"
         style="font-style:normal;font-variant:normal;font-weight:bold;font-stretch:normal;font-size:16.93333244px;font-family:'Segoe UI';-inkscape-font-specification:'Segoe UI Bold';fill:#ffffff;fill-opacity:1;stroke-width:0.26458332"
         id="path819"
         inkscape:connector-curvature="0" />
    </g>
  </g>
</svg>
