<?xml version="1.0" encoding="UTF-8" standalone="no"?>
<!-- Created with Inkscape (http://www.inkscape.org/) -->

<svg
   xmlns:dc="http://purl.org/dc/elements/1.1/"
   xmlns:cc="http://creativecommons.org/ns#"
   xmlns:rdf="http://www.w3.org/1999/02/22-rdf-syntax-ns#"
   xmlns:svg="http://www.w3.org/2000/svg"
   xmlns="http://www.w3.org/2000/svg"
   xmlns:sodipodi="http://sodipodi.sourceforge.net/DTD/sodipodi-0.dtd"
   xmlns:inkscape="http://www.inkscape.org/namespaces/inkscape"
   width="16"
   height="16"
   viewBox="0 0 4.2333333 4.2333335"
   version="1.1"
   id="svg8"
   sodipodi:docname="settings.svg"
   inkscape:version="0.92.4 (5da689c313, 2019-01-14)"
   inkscape:export-filename="C:\Development\drawtool\icons\draw\marquee.png"
   inkscape:export-xdpi="144.00002"
   inkscape:export-ydpi="144.00002">
  <defs
     id="defs2">
    <marker
       inkscape:stockid="Arrow2Lstart"
       orient="auto"
       refY="0.0"
       refX="0.0"
       id="Arrow2Lstart"
       style="overflow:visible"
       inkscape:isstock="true">
      <path
         id="path6389"
         style="fill-rule:evenodd;stroke-width:0.625;stroke-linejoin:round;stroke:#404040;stroke-opacity:1;fill:#404040;fill-opacity:1"
         d="M 8.7185878,4.0337352 L -2.2072895,0.016013256 L 8.7185884,-4.0017078 C 6.9730900,-1.6296469 6.9831476,1.6157441 8.7185878,4.0337352 z "
         transform="scale(1.1) translate(1,0)" />
    </marker>
  </defs>
  <sodipodi:namedview
     id="base"
     pagecolor="#ffffff"
     bordercolor="#666666"
     borderopacity="1.0"
     inkscape:pageopacity="0.0"
     inkscape:pageshadow="2"
     inkscape:zoom="32"
     inkscape:cx="10.737795"
     inkscape:cy="7.5251959"
     inkscape:document-units="mm"
     inkscape:current-layer="layer1"
     showgrid="true"
     units="px"
     showguides="true"
     inkscape:window-width="1920"
     inkscape:window-height="1017"
     inkscape:window-x="-8"
     inkscape:window-y="-8"
     inkscape:window-maximized="1"
     inkscape:pagecheckerboard="0"
     inkscape:snap-others="false"
     inkscape:object-nodes="false"
     inkscape:snap-nodes="true"
     inkscape:snap-bbox="true"
     inkscape:bbox-paths="true"
     inkscape:bbox-nodes="true"
     inkscape:snap-bbox-edge-midpoints="true"
     inkscape:snap-global="true">
    <inkscape:grid
       type="xygrid"
       id="grid815"
       dotted="false"
       spacingx="0.13229167"
       spacingy="0.13229167" />
  </sodipodi:namedview>
  <metadata
     id="metadata5">
    <rdf:RDF>
      <cc:Work
         rdf:about="">
        <dc:format>image/svg+xml</dc:format>
        <dc:type
           rdf:resource="http://purl.org/dc/dcmitype/StillImage" />
      </cc:Work>
    </rdf:RDF>
  </metadata>
  <g
     inkscape:label="Layer 1"
     inkscape:groupmode="layer"
     id="layer1"
     transform="translate(0,-292.76664)">
    <g
       id="g6275"
       transform="translate(0.26458334,-3.3333333e-6)"
       style="stroke:#000000;stroke-opacity:1" />
    <path
       style="opacity:1;fill:#ffffff;fill-opacity:1;fill-rule:evenodd;stroke:#ffffff;stroke-width:0.75590551;stroke-linecap:square;stroke-linejoin:miter;stroke-miterlimit:4;stroke-dasharray:none;stroke-dashoffset:0;stroke-opacity:1;paint-order:stroke fill markers"
       d="M 8.0117188 1.3417969 C 5.868409 1.337367 7.530685 2.8943265 5.671875 3.9609375 C 3.8130651 5.0275485 3.3047592 2.810255 2.2285156 4.6621094 C 1.152272 6.5139638 3.3334236 5.8532457 3.328125 7.9941406 C 3.3228264 10.135036 1.1458245 9.4659813 2.2128906 11.322266 C 3.2799568 13.17855 3.7988324 10.962825 5.6523438 12.037109 C 7.5058551 13.111393 5.8352059 14.661586 7.9785156 14.666016 C 10.121825 14.670446 8.4615025 13.113486 10.320312 12.046875 C 12.179122 10.980264 12.687428 13.199511 13.763672 11.347656 C 14.839915 9.4958018 12.658764 10.154567 12.664062 8.0136719 C 12.669361 5.872777 14.846363 6.5418312 13.779297 4.6855469 C 12.712231 2.8292625 12.193355 5.044987 10.339844 3.9707031 C 8.4863324 2.8964193 10.155028 1.3462268 8.0117188 1.3417969 z M 8 5.7226562 A 2.2780296 2.2780174 0 0 1 10.277344 8 A 2.2780296 2.2780174 0 0 1 8 10.277344 A 2.2780296 2.2780174 0 0 1 5.7226562 8 A 2.2780296 2.2780174 0 0 1 8 5.7226562 z "
       transform="matrix(0.26458333,0,0,0.26458333,0,292.76664)"
       id="path1430" />
  </g>
</svg>
