<?xml version="1.0" encoding="UTF-8" standalone="no"?>
<svg
   xmlns:dc="http://purl.org/dc/elements/1.1/"
   xmlns:cc="http://creativecommons.org/ns#"
   xmlns:rdf="http://www.w3.org/1999/02/22-rdf-syntax-ns#"
   xmlns:svg="http://www.w3.org/2000/svg"
   xmlns="http://www.w3.org/2000/svg"
   xmlns:sodipodi="http://sodipodi.sourceforge.net/DTD/sodipodi-0.dtd"
   xmlns:inkscape="http://www.inkscape.org/namespaces/inkscape"
   inkscape:export-ydpi="351.48111"
   inkscape:export-xdpi="351.48111"
   inkscape:export-filename="C:\Home\Development\vardotajs\assets\banner_en.png"
   inkscape:version="0.92.4 (5da689c313, 2019-01-14)"
   sodipodi:docname="vimba_banner_en.svg"
   id="svg4550"
   version="1.1"
   viewBox="0 0 74 37"
   height="37mm"
   width="74mm">
  <defs
     id="defs4544" />
  <sodipodi:namedview
     inkscape:document-rotation="0"
     showguides="false"
     inkscape:window-maximized="1"
     inkscape:window-y="-8"
     inkscape:window-x="-8"
     inkscape:window-height="1017"
     inkscape:window-width="1920"
     inkscape:snap-global="false"
     showgrid="true"
     inkscape:current-layer="layer1"
     inkscape:document-units="mm"
     inkscape:cy="56.905519"
     inkscape:cx="48.43599"
     inkscape:zoom="2.8284271"
     inkscape:pageshadow="2"
     inkscape:pageopacity="0.0"
     borderopacity="1.0"
     bordercolor="#666666"
     pagecolor="#ffffff"
     id="base">
    <inkscape:grid
       id="grid5095"
       type="xygrid" />
  </sodipodi:namedview>
  <metadata
     id="metadata4547">
    <rdf:RDF>
      <cc:Work
         rdf:about="">
        <dc:format>image/svg+xml</dc:format>
        <dc:type
           rdf:resource="http://purl.org/dc/dcmitype/StillImage" />
        <dc:title />
      </cc:Work>
    </rdf:RDF>
  </metadata>
  <g
     transform="translate(0,-260)"
     id="layer1"
     inkscape:groupmode="layer"
     inkscape:label="Layer 1">
    <path
       sodipodi:nodetypes="csssccccc"
       inkscape:connector-curvature="0"
       id="path5166-7"
       d="m -9.2033185,282.94739 c 0,0 13.0490916,-2.20418 20.9920225,0.14695 7.942937,2.35113 7.8011,2.93891 13.900137,2.13072 6.099039,-0.80821 6.950067,-4.62879 16.878729,-2.71849 9.928666,1.91028 17.587919,3.52668 24.963496,2.35111 7.375576,-1.17555 18.297108,-2.49807 18.297108,-2.49807 l 0.169937,24.12661 -94.0652718,1.75058 z"
       style="fill:#e1f6f9;fill-opacity:1;stroke:#58a7b0;stroke-width:1.02631;stroke-linecap:butt;stroke-linejoin:miter;stroke-miterlimit:4;stroke-dasharray:none;stroke-opacity:1" />
    <path
       sodipodi:nodetypes="ccccc"
       inkscape:connector-curvature="0"
       id="path5156"
       d="m 19.611892,278.25557 6.055088,-13.08234 2.844049,9.24633 -2.798678,-3.59119 -4.504153,10.18482"
       style="fill:#e1f6f9;fill-opacity:1;stroke:#000000;stroke-width:0.565;stroke-linecap:butt;stroke-linejoin:miter;stroke-miterlimit:4;stroke-dasharray:none;stroke-opacity:1" />
    <path
       sodipodi:nodetypes="ccccccscccccc"
       inkscape:connector-curvature="0"
       id="path5145"
       d="m 4.0255426,258.31772 8.8398234,22.91121 1.252047,1.79539 1.322917,0.61421 2.385975,-0.59059 3.827009,-2.55134 c -0.436114,-2.16736 -1.068681,-1.95776 -1.444532,-2.10077 -0.660268,-0.25124 -1.120683,0.7789 -2.571462,2.88035 l -0.55857,-1.33565 -1.056631,0.48151 -0.779576,-0.48868 L 6.8110301,257.881 Z"
       style="fill:#e1f6f9;fill-opacity:1;stroke:none;stroke-width:0.264583px;stroke-linecap:butt;stroke-linejoin:miter;stroke-opacity:1" />
    <ellipse
       ry="2.6458333"
       rx="2.7521391"
       cy="285.69376"
       cx="23.224277"
       id="path5143"
       style="opacity:1;fill:#ffffff;fill-opacity:1;fill-rule:evenodd;stroke:none;stroke-width:0.565;stroke-linecap:square;stroke-linejoin:miter;stroke-miterlimit:4;stroke-dasharray:none;stroke-dashoffset:0;stroke-opacity:1;paint-order:markers stroke fill" />
    <path
       sodipodi:nodetypes="ccccccccccccccccccccccccccc"
       inkscape:connector-curvature="0"
       id="path5135"
       d="m 15.467666,307.05459 26.290069,0.47439 -5.141666,-10.86762 -2.420509,-4.51755 -2.037931,-3.0736 -3.608138,-4.54358 -0.968852,-0.86863 -0.701583,2.03793 -1.035669,0.96885 -0.701583,1.1359 -1.436573,0.56795 -1.837478,-0.50113 -0.968852,-1.00227 -0.26727,-1.67043 0.334087,-0.93544 -0.300678,-1.77066 -1.770661,-3.00679 -1.436574,-1.60361 -0.03341,2.80633 1.102486,3.00678 -1.804069,1.67043 -1.336347,0.16705 -2.706106,-3.80859 -1.670435,-0.7684 0.868626,6.41447 1.566165,10.22332 z"
       style="fill:#e0e0e0;fill-opacity:1;stroke:none;stroke-width:0.264583px;stroke-linecap:butt;stroke-linejoin:miter;stroke-opacity:1" />
    <path
       sodipodi:nodetypes="cccsscccccccccccccccccccccc"
       inkscape:connector-curvature="0"
       id="path5154"
       d="m 16.299606,310.47323 1.492555,-2.15099 c 0,0 -4.440151,-20.39362 -2.833753,-20.44087 1.606399,-0.0472 5.622396,2.76395 8.079242,2.59859 2.456845,-0.16536 4.630208,-2.83482 4.488467,-3.28367 -0.141741,-0.44885 -1.913505,-0.21261 -1.913505,-0.21261 l -1.252046,1.22842 -1.630022,0.14174 -1.74814,-1.15755 -0.47247,-1.74814 0.448847,-1.34654 -0.87407,-3.16555 -2.338728,-3.16555 -0.826823,0.30711 -0.425223,0.49609 0.354353,2.29148 0.850446,1.67727 -0.04725,1.08668 -1.181176,1.27567 -1.252046,-0.21261 -1.322916,-1.63002 -1.889881,-3.75614 -0.685083,-0.63784 -0.87407,0.59059 -0.425223,1.51191 0.944941,6.07124 z"
       style="fill:#c7c2c3;fill-opacity:1;stroke:none;stroke-width:0.264583px;stroke-linecap:butt;stroke-linejoin:miter;stroke-opacity:1" />
    <path
       sodipodi:nodetypes="csscccccccscccc"
       inkscape:connector-curvature="0"
       id="path5133"
       d="m 18.362214,278.04198 c 0,0 -1.608365,-0.7819 -1.007009,-0.0136 0.601356,0.7684 1.497906,3.03986 1.831993,4.50985 0.334086,1.46998 1.644885,1.72108 1.644885,1.72108 l 1.135896,-1.1359 1.570208,-0.16704 1.236122,0.36749 1.135895,1.40317 v 1.87089 c -0.966604,0.76311 0.438489,1.90011 1.407341,0.99808 0.968852,-0.90204 0.530363,-3.53715 0.329911,-4.03828 -0.200452,-0.50113 -2.80633,-2.47224 -2.80633,-2.47224 l -2.372017,-1.77066 -2.071339,-0.90203 z"
       style="fill:#827f82;fill-opacity:1;stroke:none;stroke-width:0.264583px;stroke-linecap:butt;stroke-linejoin:miter;stroke-opacity:1" />
    <path
       sodipodi:nodetypes="csccsc"
       inkscape:connector-curvature="0"
       id="path5099"
       d="m 3.6499399,257.35223 c 0,0 9.0500621,24.30192 10.3729791,25.62484 1.322917,1.32292 3.602586,0.0118 3.602586,0.0118 l -1.013089,-2.92116 c 0,0 -0.654742,0.85856 -1.363448,-0.13363 -0.708706,-0.99219 -8.8290569,-22.79379 -8.8290569,-22.79379"
       style="fill:#e1f6f9;fill-opacity:1;stroke:#000000;stroke-width:0.565;stroke-linecap:butt;stroke-linejoin:miter;stroke-miterlimit:4;stroke-dasharray:none;stroke-opacity:1" />
    <path
       sodipodi:nodetypes="cscsc"
       inkscape:connector-curvature="0"
       id="path5103"
       d="m 16.659663,280.20947 c 0,0 -0.557874,-1.48463 0.05634,-2.09884 0.614211,-0.61421 2.976562,0.0472 2.976562,0.0472 0,0 8.825536,3.32327 16.083492,16.49195 0.46886,0.85069 5.000357,10.95658 5.453332,11.8912"
       style="fill:none;stroke:#000000;stroke-width:0.565;stroke-linecap:butt;stroke-linejoin:miter;stroke-miterlimit:4;stroke-dasharray:none;stroke-opacity:1" />
    <path
       sodipodi:nodetypes="csc"
       inkscape:connector-curvature="0"
       id="path5105"
       d="m 11.878552,278.81374 c 0,0 -1.670435,-0.93544 -1.737253,2.00452 -0.06682,2.93997 5.131577,24.86274 5.131577,24.86274"
       style="fill:none;stroke:#000000;stroke-width:0.565;stroke-linecap:butt;stroke-linejoin:miter;stroke-miterlimit:4;stroke-dasharray:none;stroke-opacity:1" />
    <path
       sodipodi:nodetypes="cssc"
       inkscape:connector-curvature="0"
       id="path5109"
       d="m 11.778326,278.74692 c 0,0 0.658311,1.46157 1.424733,2.99601 1.172022,2.34649 2.795488,4.71101 4.46583,1.64235 0.07155,-0.13145 -0.02623,-0.23921 0.04546,-0.39103"
       style="fill:none;stroke:#000000;stroke-width:0.565;stroke-linecap:butt;stroke-linejoin:miter;stroke-miterlimit:4;stroke-dasharray:none;stroke-opacity:1" />
    <ellipse
       ry="2.7395127"
       rx="2.706104"
       cy="285.59567"
       cx="23.304325"
       id="path5115"
       style="opacity:1;fill:none;fill-opacity:1;fill-rule:evenodd;stroke:#000000;stroke-width:0.565;stroke-linecap:square;stroke-linejoin:miter;stroke-miterlimit:4;stroke-dasharray:none;stroke-dashoffset:0;stroke-opacity:1;paint-order:markers stroke fill" />
    <ellipse
       ry="0.90203464"
       rx="0.96885204"
       cy="285.42865"
       cx="23.371143"
       id="path5117"
       style="opacity:1;fill:#002121;fill-opacity:1;fill-rule:evenodd;stroke:#000000;stroke-width:0.565;stroke-linecap:square;stroke-linejoin:miter;stroke-miterlimit:4;stroke-dasharray:none;stroke-dashoffset:0;stroke-opacity:1;paint-order:markers stroke fill" />
    <path
       inkscape:connector-curvature="0"
       id="path5127"
       d="m 20.264136,279.54873 c 0,0 -0.935444,0 -0.53454,0.43431 0.400905,0.43432 1.236122,0.56795 1.169305,0.16705 -0.06682,-0.40091 -0.634765,-0.60136 -0.634765,-0.60136 z"
       style="fill:#e0e0e0;fill-opacity:1;stroke:#0e0404;stroke-width:0.264583px;stroke-linecap:butt;stroke-linejoin:miter;stroke-opacity:1" />
    <path
       d="m 33.287828,282.06775 q -0.185444,0.35095 -0.385153,0.93588 -0.185445,0.58492 -0.542069,1.75477 l -0.399418,1.33882 q -0.727512,2.40468 -0.898692,3.39255 -0.04279,0.22096 -0.22824,0.36395 -0.185444,0.15598 -0.556332,0.15598 -0.08559,0 -0.613393,-1.09186 -0.513538,-1.10485 -1.35517,-2.9376 -0.513539,-1.09186 -1.041342,-2.02774 -0.527803,-0.94887 -0.713247,-1.09186 -0.242504,-0.16897 -0.242504,-0.36395 0,-0.091 0.185444,-0.24696 0.199709,-0.15598 0.39942,-0.15598 0.128385,0 0.185443,0.052 0.05705,0.0391 0.156915,0.16899 0.185445,0.24696 0.613393,1.07885 0.427948,0.81889 0.870162,1.79376 l 1.169724,2.58666 q 0.556334,1.19583 0.641924,1.40382 0.02853,-0.24698 0.256768,-1.16985 0.242504,-0.92288 0.570598,-2.07973 0.48501,-1.67677 0.784573,-2.63865 0.313828,-0.97486 0.584863,-1.54679 0.242504,-0.50694 0.413684,-0.68892 0.171178,-0.18197 0.385153,-0.18197 0.07133,0 0.22824,0.20797 0.156914,0.19498 0.156914,0.25997 0,0.0391 -0.22824,0.22097 -0.228239,0.18198 -0.399418,0.50693 z"
       style="font-style:normal;font-variant:normal;font-weight:normal;font-stretch:normal;font-size:10.58329964px;line-height:1.25;font-family:'Ink Free';-inkscape-font-specification:'Ink Free';letter-spacing:0px;word-spacing:0px;fill:#e1f6f9;fill-opacity:1;stroke:#000000;stroke-width:1.28664005;stroke-linecap:square;stroke-linejoin:bevel;stroke-miterlimit:4;stroke-dasharray:none;stroke-opacity:1;paint-order:fill markers stroke"
       id="path909"
       inkscape:connector-curvature="0" />
    <path
       d="m 40.219115,283.31886 q -0.433915,0.0847 -1.100663,0.16933 -0.666748,0.0741 -1.079497,0.0953 -0.03175,0.45508 -0.08467,2.62466 -0.05292,2.16957 -0.0635,3.20674 0.571498,-0.0106 1.502829,-0.0741 0.783164,-0.0423 0.878414,-0.0423 0.190499,0 0.338665,0.0847 0.15875,0.0847 0.15875,0.26458 0,0.14817 -0.05292,0.21167 -0.04233,0.0635 -0.201082,0.0635 -0.0635,0 -0.349249,-0.0317 -0.211666,-0.0423 -0.359833,-0.0423 -0.497415,0 -1.98966,0.0635 -0.05292,0.0741 -0.126999,0.10584 -0.0635,0.0423 -0.116417,0.0423 -0.0635,0 -0.126999,-0.0318 -0.0635,-0.0317 -0.07408,-0.0952 l -0.476249,0.0529 q -0.825497,0.10583 -1.227663,0.10583 -0.349249,0 -0.529165,-0.14817 -0.09525,-0.0847 -0.09525,-0.30691 0,-0.0635 0.0635,-0.15875 0.07408,-0.0952 0.148167,-0.0952 0.02117,0 0.158749,0.0635 0.148166,0.0529 0.275166,0.0529 0.391582,0 1.15358,-0.0423 l 0.486831,-0.0318 0.0635,-1.55574 q 0.01058,-0.24342 0.02117,-0.43392 0.01058,-0.20108 0.01058,-0.33866 l 0.105833,-3.46074 q -1.100663,0.0741 -1.047747,0.0741 -1.079496,0.0847 -1.269996,0.0847 -0.179916,0 -0.338665,-0.11642 -0.15875,-0.11642 -0.15875,-0.29633 0,-0.127 0.0635,-0.20109 0.07408,-0.0741 0.1905,-0.0741 0.08467,0 0.169332,0.0106 0.08467,0.0106 0.169333,0.0212 0.264583,0.0529 0.507998,0.0529 0.232833,0 0.888998,-0.0318 0.656164,-0.0423 0.878414,-0.0529 0.01058,-0.13758 0.09525,-0.22225 0.08467,-0.0953 0.22225,-0.0953 0.0635,0 0.105832,0.0847 0.04233,0.0847 0.04233,0.1905 0.613831,-0.0212 2.211909,-0.27517 0.127,-0.0212 0.275166,-0.11641 0.15875,-0.0952 0.179916,-0.0952 0.105833,0 0.201083,0.0847 0.09525,0.0847 0.09525,0.21167 0,0.20108 -0.201083,0.28575 -0.201083,0.0847 -0.592665,0.15875 z"
       style="font-style:normal;font-variant:normal;font-weight:normal;font-stretch:normal;font-size:10.58329964px;line-height:1.25;font-family:'Ink Free';-inkscape-font-specification:'Ink Free';letter-spacing:0px;word-spacing:0px;fill:#000000;fill-opacity:1;stroke:#000000;stroke-width:1;stroke-miterlimit:4;stroke-dasharray:none;stroke-opacity:1"
       id="path911"
       inkscape:connector-curvature="0" />
    <path
       d="m 49.86166,289.31959 q -0.127,0 -0.201083,-0.0106 -0.07408,-0.0212 -0.105833,-0.0953 -0.09525,-0.15874 -0.222249,-0.94191 -0.126999,-0.78316 -0.243416,-1.79916 -0.253999,-3.10091 -0.391582,-3.16441 -0.116416,0.254 -0.359832,0.96308 -0.243416,0.6985 -0.560915,1.83091 -0.349249,1.21708 -0.529165,1.68275 -0.179916,0.45508 -0.317499,0.56091 -0.08467,0.0741 -0.211666,0.14817 -0.116416,0.0635 -0.201083,0.0635 -0.105833,0 -0.137583,-0.0212 -0.03175,-0.0318 -0.07408,-0.16933 -0.04233,-0.15875 -0.201082,-0.98425 -0.15875,-0.83608 -0.243416,-1.50282 l -0.0635,-0.4445 q -0.179916,-1.37583 -0.243416,-1.53458 -0.201083,0.17991 -0.380999,0.80433 -0.179916,0.61383 -0.412748,1.74624 -0.22225,0.87842 -0.539749,2.85749 -0.01058,0.11642 -0.158749,0.21167 -0.148166,0.0952 -0.264583,0.0952 -0.169332,0 -0.190499,-0.32808 -0.01058,-0.32808 -0.148166,-1.41816 -0.127,-1.09008 -0.232833,-1.91558 -0.148166,-1.17475 -0.402165,-2.18016 -0.07408,-0.3175 -0.07408,-0.35983 0,-0.15875 0.148166,-0.254 0.158749,-0.10584 0.338666,-0.10584 0.08467,0 0.179916,0.65617 0.09525,0.65616 0.201082,1.65099 l 0.03175,0.34925 q 0.04233,0.34925 0.09525,0.73025 0.201083,1.61925 0.222249,2.03199 0.211666,-1.22766 0.476249,-2.4659 l 0.09525,-0.46567 q 0.232833,-1.12183 0.507999,-1.69333 0.275166,-0.58208 0.709081,-0.58208 0.137583,0 0.306916,0.71966 0.169332,0.70909 0.264582,1.66158 0.07408,0.67733 0.190499,1.32292 0.116417,0.64558 0.211666,0.89958 0.0635,-0.17992 0.254,-0.79375 0.201082,-0.61383 0.370415,-1.16416 0.518582,-1.76742 1.100663,-3.16441 0.105833,-0.22225 0.201083,-0.3175 0.105833,-0.10583 0.359832,-0.10583 0.137583,0 0.296332,1.20649 0.15875,1.2065 0.264583,2.79399 0.285749,2.24366 0.518582,2.44475 0.158749,0.13758 0.158749,0.29633 0,0.0741 -0.126999,0.16933 -0.116417,0.0847 -0.264583,0.0847 z"
       style="font-style:normal;font-variant:normal;font-weight:normal;font-stretch:normal;font-size:10.58329964px;line-height:1.25;font-family:'Ink Free';-inkscape-font-specification:'Ink Free';letter-spacing:0px;word-spacing:0px;fill:#000000;fill-opacity:1;stroke:#000000;stroke-width:1;stroke-linecap:round;stroke-linejoin:bevel;stroke-miterlimit:4;stroke-dasharray:none;stroke-opacity:1;paint-order:stroke fill markers"
       id="path913"
       inkscape:connector-curvature="0" />
    <path
       d="m 56.577758,288.52584 q -0.476248,0.47625 -1.121829,0.93133 -0.423332,0.29633 -0.836081,0.508 -0.402165,0.21167 -0.613831,0.21167 -0.105833,0 -0.1905,-0.0635 -0.07408,-0.0529 -0.07408,-0.16934 0,-0.16933 0.127,-0.29633 0.126999,-0.11642 0.338665,-0.1905 0.105833,-0.0423 0.296333,-0.0847 0.243416,-0.0423 0.433915,-0.13758 0.359832,-0.17991 0.836081,-0.55033 0.486831,-0.381 0.761997,-0.67733 0.455082,-0.48683 0.687915,-0.85725 0.243416,-0.381 0.243416,-0.78316 0,-0.22225 -0.211666,-0.3175 -0.211666,-0.10583 -0.518582,-0.10583 -0.783164,0 -1.428746,0.27516 -0.285749,0.127 -0.391582,0.17992 -0.380998,0.16933 -0.624414,0.26458 -0.275166,0.10583 -0.529165,0.1905 -0.253999,0.0741 -0.338666,0.10583 l 0.02117,0.40217 q 0,0.15875 0.01058,0.508 0.02117,0.34924 0.02117,0.65616 0,0.73025 -0.105833,1.18533 -0.04233,0.14817 -0.09525,0.21167 -0.05292,0.0635 -0.201083,0.0635 -0.09525,0 -0.179916,-0.0635 -0.08467,-0.0635 -0.08467,-0.15875 0,-0.0317 0.09525,-0.35984 0.09525,-0.32808 0.09525,-0.58208 0,-0.82549 -0.07408,-2.10607 l -0.03175,-0.48684 q -0.0635,-0.69849 -0.0635,-1.10066 0,-0.30691 0.04233,-0.77258 0.04233,-0.47625 0.0635,-0.62441 -0.402165,0.10583 -1.02658,0.38099 -0.179916,0.0741 -0.465665,0.26459 -0.264582,0.16933 -0.359832,0.16933 -0.08467,0 -0.148166,-0.0741 -0.0635,-0.0741 -0.0635,-0.17992 0,-0.20108 0.709081,-0.51858 0.709081,-0.3175 1.545162,-0.56092 0.751414,-0.22225 1.333496,-0.32808 0.582081,-0.10583 1.195912,-0.10583 0.560915,0 0.931331,0.22225 0.380999,0.21166 0.380999,0.60325 0,0.93133 -1.015997,1.92616 0.455082,-0.0635 0.825497,-0.0635 0.486832,0 0.836081,0.20108 0.349249,0.20108 0.349249,0.67733 0,0.508 -0.370416,1.02658 -0.370415,0.508 -1.015997,1.15358 z m -1.005413,-5.30223 q -0.433915,0 -1.09008,0.10583 -0.656164,0.0953 -1.015997,0.21167 -0.179916,0.71966 -0.179916,1.20649 0,0.68792 0.0635,1.73566 0.105833,-0.0106 0.338666,-0.0847 0.243416,-0.0741 0.444498,-0.15875 1.005414,-0.42333 1.672162,-1.10067 0.666747,-0.67733 0.666747,-1.39699 0,-0.254 -0.243415,-0.381 -0.243416,-0.13758 -0.656165,-0.13758 z"
       style="font-style:normal;font-variant:normal;font-weight:normal;font-stretch:normal;font-size:10.58329964px;line-height:1.25;font-family:'Ink Free';-inkscape-font-specification:'Ink Free';letter-spacing:0px;word-spacing:0px;fill:#000000;fill-opacity:1;stroke:#000000;stroke-width:1;stroke-miterlimit:4;stroke-dasharray:none;stroke-opacity:1"
       id="path915"
       inkscape:connector-curvature="0" />
    <path
       d="m 65.546612,286.61026 q -0.07408,0.0635 -0.306916,0.11642 -0.232832,0.0423 -0.317499,0.0529 0.08467,0.40216 0.08467,0.39158 0.07408,0.26458 0.158749,0.73025 0.1905,1.06891 0.391582,1.82032 0.05292,0.24342 0.05292,0.28575 0,0.10584 -0.08467,0.17992 -0.08467,0.0741 -0.201082,0.0741 -0.105833,0 -0.1905,-0.11641 -0.08467,-0.10584 -0.116416,-0.1905 -0.09525,-0.35984 -0.179916,-0.80433 -0.07408,-0.4445 -0.179916,-1.06892 -0.04233,-0.27516 -0.137583,-0.67733 -0.09525,-0.41275 -0.127,-0.53975 -0.624414,0.0847 -2.14841,0.33867 l -0.613831,0.10583 -0.222249,0.62442 -0.296333,0.84666 q -0.370415,1.15358 -0.529165,1.77799 -0.03175,0.14817 -0.126999,0.24342 -0.09525,0.10583 -0.232833,0.10583 -0.116416,0 -0.201083,-0.0635 -0.07408,-0.0635 -0.07408,-0.17991 0,-0.11642 0.127,-0.49742 0.127,-0.37041 0.148166,-0.4445 0.04233,-0.10583 0.169333,-0.48683 0.137583,-0.41275 0.349249,-0.99483 0.222249,-0.59266 0.296332,-0.78316 -0.539748,0.127 -0.804331,0.20108 -0.402165,0.10583 -0.497415,0.10583 -0.116416,0 -0.179916,-0.0847 -0.05292,-0.0952 -0.05292,-0.20109 0,-0.127 0.0635,-0.16933 0.0635,-0.0529 0.211666,-0.0952 0.402165,-0.0952 0.846664,-0.1905 0.455081,-0.0953 0.624414,-0.127 0.105833,-0.30691 0.15875,-0.51858 0.04233,-0.13758 0.105833,-0.33866 0.07408,-0.21167 0.158749,-0.51859 l 0.15875,-0.53974 q 0.402165,-1.41817 0.465665,-1.61925 0.05292,-0.14817 0.09525,-0.23283 0.05292,-0.0847 0.137583,-0.0847 0.211666,0 0.380998,0.0635 0.02117,-0.0212 0.0635,-0.0847 0.05292,-0.0741 0.105833,-0.0952 0.0635,-0.0317 0.15875,-0.0317 0.190499,0 0.433915,0.43391 0.253999,0.43392 0.486832,1.02658 0.137583,0.34925 0.349249,1.04775 0.211666,0.68791 0.275165,0.91016 0.15875,-0.0212 0.264583,-0.0529 0.116416,-0.0423 0.148166,-0.0529 0.05292,-0.0212 0.116416,-0.0741 0.0635,-0.0529 0.116417,-0.0741 0.05292,-0.0317 0.116416,0 0.137583,0.0635 0.137583,0.26458 0,0.0741 -0.04233,0.15875 -0.03175,0.0847 -0.09525,0.127 z m -1.788578,-2.00024 q -0.148166,-0.39158 -0.380999,-0.80433 -0.232832,-0.41275 -0.391582,-0.51858 l -0.116416,0.27516 q -0.201083,0.40217 -0.306916,0.73025 -0.253999,0.762 -0.80433,2.51883 l 1.238246,-0.21167 1.015996,-0.15875 0.28575,-0.0423 q -0.05292,-0.1905 -0.22225,-0.79375 -0.169333,-0.61383 -0.317499,-0.99483 z"
       style="font-style:normal;font-variant:normal;font-weight:normal;font-stretch:normal;font-size:10.58329964px;line-height:1.25;font-family:'Ink Free';-inkscape-font-specification:'Ink Free';letter-spacing:0px;word-spacing:0px;fill:#000000;fill-opacity:1;stroke:#000000;stroke-width:1;stroke-miterlimit:4;stroke-dasharray:none;stroke-opacity:1"
       id="path917"
       inkscape:connector-curvature="0" />
    <path
       inkscape:connector-curvature="0"
       id="path909-4"
       style="font-style:normal;font-variant:normal;font-weight:normal;font-stretch:normal;font-size:10.58329964px;line-height:1.25;font-family:'Ink Free';-inkscape-font-specification:'Ink Free';letter-spacing:0px;word-spacing:0px;fill:#e1f6f9;fill-opacity:1;stroke:#e1f6f9;stroke-width:0.19;stroke-linecap:square;stroke-linejoin:bevel;stroke-miterlimit:4;stroke-dasharray:none;stroke-opacity:1;paint-order:fill markers stroke"
       d="m 33.29657,282.07426 q -0.185444,0.35095 -0.385153,0.93588 -0.185445,0.58492 -0.542069,1.75477 l -0.399418,1.33882 q -0.727512,2.40468 -0.898692,3.39255 -0.04279,0.22096 -0.22824,0.36395 -0.185444,0.15598 -0.556332,0.15598 -0.08559,0 -0.613393,-1.09186 -0.513538,-1.10485 -1.35517,-2.9376 -0.513539,-1.09186 -1.041342,-2.02774 -0.527803,-0.94887 -0.713247,-1.09186 -0.242504,-0.16897 -0.242504,-0.36395 0,-0.091 0.185444,-0.24696 0.199709,-0.15598 0.39942,-0.15598 0.128385,0 0.185443,0.052 0.05705,0.0391 0.156915,0.16899 0.185445,0.24696 0.613393,1.07885 0.427948,0.81889 0.870162,1.79376 l 1.169724,2.58666 q 0.556334,1.19583 0.641924,1.40382 0.02853,-0.24698 0.256768,-1.16985 0.242504,-0.92288 0.570598,-2.07973 0.48501,-1.67677 0.784573,-2.63865 0.313828,-0.97486 0.584863,-1.54679 0.242504,-0.50694 0.413684,-0.68892 0.171178,-0.18197 0.385153,-0.18197 0.07133,0 0.22824,0.20797 0.156914,0.19498 0.156914,0.25997 0,0.0391 -0.22824,0.22097 -0.228239,0.18198 -0.399418,0.50693 z" />
    <path
       inkscape:connector-curvature="0"
       id="path911-3"
       style="font-style:normal;font-variant:normal;font-weight:normal;font-stretch:normal;font-size:10.58329964px;line-height:1.25;font-family:'Ink Free';-inkscape-font-specification:'Ink Free';letter-spacing:0px;word-spacing:0px;fill:#e1f6f9;fill-opacity:1;stroke:#e1f6f9;stroke-width:0.0699343;stroke-miterlimit:4;stroke-dasharray:none;stroke-opacity:1"
       d="m 40.227857,283.32537 q -0.433915,0.0847 -1.100663,0.16933 -0.666748,0.0741 -1.079497,0.0953 -0.03175,0.45508 -0.08467,2.62466 -0.05292,2.16957 -0.0635,3.20674 0.571498,-0.0106 1.502829,-0.0741 0.783164,-0.0423 0.878414,-0.0423 0.190499,0 0.338665,0.0847 0.15875,0.0847 0.15875,0.26458 0,0.14817 -0.05292,0.21167 -0.04233,0.0635 -0.201082,0.0635 -0.0635,0 -0.349249,-0.0317 -0.211666,-0.0423 -0.359833,-0.0423 -0.497415,0 -1.98966,0.0635 -0.05292,0.0741 -0.126999,0.10584 -0.0635,0.0423 -0.116417,0.0423 -0.0635,0 -0.126999,-0.0318 -0.0635,-0.0317 -0.07408,-0.0952 l -0.476249,0.0529 q -0.825497,0.10583 -1.227663,0.10583 -0.349249,0 -0.529165,-0.14817 -0.09525,-0.0847 -0.09525,-0.30691 0,-0.0635 0.0635,-0.15875 0.07408,-0.0952 0.148167,-0.0952 0.02117,0 0.158749,0.0635 0.148166,0.0529 0.275166,0.0529 0.391582,0 1.15358,-0.0423 l 0.486831,-0.0318 0.0635,-1.55574 q 0.01058,-0.24342 0.02117,-0.43392 0.01058,-0.20108 0.01058,-0.33866 l 0.105833,-3.46074 q -1.100663,0.0741 -1.047747,0.0741 -1.079496,0.0847 -1.269996,0.0847 -0.179916,0 -0.338665,-0.11642 -0.15875,-0.11642 -0.15875,-0.29633 0,-0.127 0.0635,-0.20109 0.07408,-0.0741 0.1905,-0.0741 0.08467,0 0.169332,0.0106 0.08467,0.0106 0.169333,0.0212 0.264583,0.0529 0.507998,0.0529 0.232833,0 0.888998,-0.0318 0.656164,-0.0423 0.878414,-0.0529 0.01058,-0.13758 0.09525,-0.22225 0.08467,-0.0953 0.22225,-0.0953 0.0635,0 0.105832,0.0847 0.04233,0.0847 0.04233,0.1905 0.613831,-0.0212 2.211909,-0.27517 0.127,-0.0212 0.275166,-0.11641 0.15875,-0.0952 0.179916,-0.0952 0.105833,0 0.201083,0.0847 0.09525,0.0847 0.09525,0.21167 0,0.20108 -0.201083,0.28575 -0.201083,0.0847 -0.592665,0.15875 z" />
    <path
       inkscape:connector-curvature="0"
       id="path913-4"
       style="font-style:normal;font-variant:normal;font-weight:normal;font-stretch:normal;font-size:10.58329964px;line-height:1.25;font-family:'Ink Free';-inkscape-font-specification:'Ink Free';letter-spacing:0px;word-spacing:0px;fill:#e1f6f9;fill-opacity:1;stroke:#e1f6f9;stroke-width:0.0699343;stroke-linecap:round;stroke-linejoin:bevel;stroke-miterlimit:4;stroke-dasharray:none;stroke-opacity:1;paint-order:stroke fill markers"
       d="m 49.870402,289.3261 q -0.127,0 -0.201083,-0.0106 -0.07408,-0.0212 -0.105833,-0.0953 -0.09525,-0.15874 -0.222249,-0.94191 -0.126999,-0.78316 -0.243416,-1.79916 -0.253999,-3.10091 -0.391582,-3.16441 -0.116416,0.254 -0.359832,0.96308 -0.243416,0.6985 -0.560915,1.83091 -0.349249,1.21708 -0.529165,1.68275 -0.179916,0.45508 -0.317499,0.56091 -0.08467,0.0741 -0.211666,0.14817 -0.116416,0.0635 -0.201083,0.0635 -0.105833,0 -0.137583,-0.0212 -0.03175,-0.0318 -0.07408,-0.16933 -0.04233,-0.15875 -0.201082,-0.98425 -0.15875,-0.83608 -0.243416,-1.50282 l -0.0635,-0.4445 q -0.179916,-1.37583 -0.243416,-1.53458 -0.201083,0.17991 -0.380999,0.80433 -0.179916,0.61383 -0.412748,1.74624 -0.22225,0.87842 -0.539749,2.85749 -0.01058,0.11642 -0.158749,0.21167 -0.148166,0.0952 -0.264583,0.0952 -0.169332,0 -0.190499,-0.32808 -0.01058,-0.32808 -0.148166,-1.41816 -0.127,-1.09008 -0.232833,-1.91558 -0.148166,-1.17475 -0.402165,-2.18016 -0.07408,-0.3175 -0.07408,-0.35983 0,-0.15875 0.148166,-0.254 0.158749,-0.10584 0.338666,-0.10584 0.08467,0 0.179916,0.65617 0.09525,0.65616 0.201082,1.65099 l 0.03175,0.34925 q 0.04233,0.34925 0.09525,0.73025 0.201083,1.61925 0.222249,2.03199 0.211666,-1.22766 0.476249,-2.4659 l 0.09525,-0.46567 q 0.232833,-1.12183 0.507999,-1.69333 0.275166,-0.58208 0.709081,-0.58208 0.137583,0 0.306916,0.71966 0.169332,0.70909 0.264582,1.66158 0.07408,0.67733 0.190499,1.32292 0.116417,0.64558 0.211666,0.89958 0.0635,-0.17992 0.254,-0.79375 0.201082,-0.61383 0.370415,-1.16416 0.518582,-1.76742 1.100663,-3.16441 0.105833,-0.22225 0.201083,-0.3175 0.105833,-0.10583 0.359832,-0.10583 0.137583,0 0.296332,1.20649 0.15875,1.2065 0.264583,2.79399 0.285749,2.24366 0.518582,2.44475 0.158749,0.13758 0.158749,0.29633 0,0.0741 -0.126999,0.16933 -0.116417,0.0847 -0.264583,0.0847 z" />
    <path
       inkscape:connector-curvature="0"
       id="path915-3"
       style="font-style:normal;font-variant:normal;font-weight:normal;font-stretch:normal;font-size:10.58329964px;line-height:1.25;font-family:'Ink Free';-inkscape-font-specification:'Ink Free';letter-spacing:0px;word-spacing:0px;fill:#e1f6f9;fill-opacity:1;stroke:#e1f6f9;stroke-width:0.0699343;stroke-miterlimit:4;stroke-dasharray:none;stroke-opacity:1"
       d="m 56.5865,288.53235 q -0.476247,0.47625 -1.121828,0.93133 -0.423333,0.29633 -0.836081,0.508 -0.402166,0.21167 -0.613833,0.21167 -0.105831,0 -0.1905,-0.0635 -0.07408,-0.0529 -0.07408,-0.16934 0,-0.16933 0.127,-0.29633 0.126997,-0.11642 0.338664,-0.1905 0.105833,-0.0423 0.296333,-0.0847 0.243417,-0.0423 0.433914,-0.13758 0.359834,-0.17991 0.836081,-0.55033 0.486833,-0.381 0.761998,-0.67733 0.455083,-0.48683 0.687916,-0.85725 0.243414,-0.381 0.243414,-0.78316 0,-0.22225 -0.211664,-0.3175 -0.211666,-0.10583 -0.518583,-0.10583 -0.783164,0 -1.428745,0.27516 -0.28575,0.127 -0.391583,0.17992 -0.380998,0.16933 -0.624414,0.26458 -0.275167,0.10583 -0.529164,0.1905 -0.254,0.0741 -0.338667,0.10583 l 0.02117,0.40217 q 0,0.15875 0.01058,0.508 0.02117,0.34924 0.02117,0.65616 0,0.73025 -0.105834,1.18533 -0.04233,0.14817 -0.09525,0.21167 -0.05292,0.0635 -0.20108,0.0635 -0.09525,0 -0.179917,-0.0635 -0.08467,-0.0635 -0.08467,-0.15875 0,-0.0317 0.09525,-0.35984 0.09525,-0.32808 0.09525,-0.58208 0,-0.82549 -0.07408,-2.10607 l -0.03175,-0.48684 q -0.0635,-0.69849 -0.0635,-1.10066 0,-0.30691 0.04233,-0.77258 0.04233,-0.47625 0.0635,-0.62441 -0.402167,0.10583 -1.026581,0.38099 -0.179916,0.0741 -0.465665,0.26459 -0.264582,0.16933 -0.359832,0.16933 -0.08467,0 -0.148166,-0.0741 -0.0635,-0.0741 -0.0635,-0.17992 0,-0.20108 0.709081,-0.51858 0.709079,-0.3175 1.545163,-0.56092 0.751414,-0.22225 1.333494,-0.32808 0.582081,-0.10583 1.195912,-0.10583 0.560917,0 0.931331,0.22225 0.381,0.21166 0.381,0.60325 0,0.93133 -1.015998,1.92616 0.455084,-0.0635 0.825498,-0.0635 0.486833,0 0.83608,0.20108 0.34925,0.20108 0.34925,0.67733 0,0.508 -0.370416,1.02658 -0.370414,0.508 -1.015998,1.15358 z m -1.005414,-5.30223 q -0.433914,0 -1.090078,0.10583 -0.656164,0.0953 -1.015997,0.21167 -0.179917,0.71966 -0.179917,1.20649 0,0.68792 0.0635,1.73566 0.105833,-0.0106 0.338667,-0.0847 0.243416,-0.0741 0.444497,-0.15875 1.005414,-0.42333 1.672162,-1.10067 0.666747,-0.67733 0.666747,-1.39699 0,-0.254 -0.243414,-0.381 -0.243417,-0.13758 -0.656167,-0.13758 z" />
    <path
       inkscape:connector-curvature="0"
       id="path917-7"
       style="font-style:normal;font-variant:normal;font-weight:normal;font-stretch:normal;font-size:10.58329964px;line-height:1.25;font-family:'Ink Free';-inkscape-font-specification:'Ink Free';letter-spacing:0px;word-spacing:0px;fill:#e1f6f9;fill-opacity:1;stroke:#e1f6f9;stroke-width:0.0699343;stroke-miterlimit:4;stroke-dasharray:none;stroke-opacity:1"
       d="m 65.555354,286.61677 q -0.07408,0.0635 -0.306917,0.11642 -0.23283,0.0423 -0.317497,0.0529 0.08467,0.40216 0.08467,0.39158 0.07408,0.26458 0.15875,0.73025 0.1905,1.06891 0.391581,1.82032 0.05292,0.24342 0.05292,0.28575 0,0.10584 -0.08467,0.17992 -0.08467,0.0741 -0.201081,0.0741 -0.105833,0 -0.1905,-0.11641 -0.08467,-0.10584 -0.116416,-0.1905 -0.09525,-0.35984 -0.179917,-0.80433 -0.07408,-0.4445 -0.179917,-1.06892 -0.04233,-0.27516 -0.13758,-0.67733 -0.09525,-0.41275 -0.127,-0.53975 -0.624414,0.0847 -2.148412,0.33867 l -0.61383,0.10583 -0.22225,0.62442 -0.296334,0.84666 q -0.370414,1.15358 -0.529164,1.77799 -0.03175,0.14817 -0.127,0.24342 -0.09525,0.10583 -0.232831,0.10583 -0.116416,0 -0.201083,-0.0635 -0.07408,-0.0635 -0.07408,-0.17991 0,-0.11642 0.127,-0.49742 0.127,-0.37041 0.148167,-0.4445 0.04233,-0.10583 0.169333,-0.48683 0.137581,-0.41275 0.349248,-0.99483 0.22225,-0.59266 0.296333,-0.78316 -0.53975,0.127 -0.804331,0.20108 -0.402166,0.10583 -0.497416,0.10583 -0.116417,0 -0.179917,-0.0847 -0.05292,-0.0952 -0.05292,-0.20109 0,-0.127 0.0635,-0.16933 0.0635,-0.0529 0.211666,-0.0952 0.402164,-0.0952 0.846664,-0.1905 0.455081,-0.0953 0.624415,-0.127 0.105833,-0.30691 0.15875,-0.51858 0.04233,-0.13758 0.105833,-0.33866 0.07408,-0.21167 0.158747,-0.51859 l 0.15875,-0.53974 q 0.402167,-1.41817 0.465667,-1.61925 0.05292,-0.14817 0.09525,-0.23283 0.05292,-0.0847 0.137583,-0.0847 0.211664,0 0.380998,0.0635 0.02117,-0.0212 0.0635,-0.0847 0.05292,-0.0741 0.105833,-0.0952 0.0635,-0.0317 0.15875,-0.0317 0.190497,0 0.433914,0.43391 0.254,0.43392 0.486833,1.02658 0.137584,0.34925 0.349248,1.04775 0.211666,0.68791 0.275166,0.91016 0.15875,-0.0212 0.264584,-0.0529 0.116414,-0.0423 0.148164,-0.0529 0.05292,-0.0212 0.116416,-0.0741 0.0635,-0.0529 0.116417,-0.0741 0.05292,-0.0317 0.116417,0 0.137583,0.0635 0.137583,0.26458 0,0.0741 -0.04233,0.15875 -0.03175,0.0847 -0.09525,0.127 z m -1.788578,-2.00024 q -0.148167,-0.39158 -0.380997,-0.80433 -0.232834,-0.41275 -0.391584,-0.51858 l -0.116416,0.27516 q -0.201084,0.40217 -0.306914,0.73025 -0.254,0.762 -0.804331,2.51883 l 1.238245,-0.21167 1.015997,-0.15875 0.28575,-0.0423 q -0.05292,-0.1905 -0.22225,-0.79375 -0.169333,-0.61383 -0.3175,-0.99483 z" />
    <path
       id="path880-8"
       style="font-style:normal;font-variant:normal;font-weight:normal;font-stretch:normal;font-size:10.58333302px;line-height:1.25;font-family:'Ink Free';-inkscape-font-specification:'Ink Free';letter-spacing:0px;word-spacing:0px;fill:none;fill-opacity:1;stroke:#000000;stroke-width:0.981;stroke-miterlimit:4;stroke-dasharray:none;stroke-opacity:1"
       d="m 37.041883,272.35773 q 0,0.92058 -0.07331,1.96902 -0.07331,1.04844 -0.158836,1.85395 -0.06109,0.69044 -0.232146,1.52152 -0.171054,0.83108 -0.415418,1.43202 -0.244363,0.58815 -0.500944,0.58815 -0.158838,0 -0.366547,-0.57537 -0.207709,-0.57536 -0.5376,-1.68772 l -0.207709,-0.71601 q -0.219928,-0.74158 -0.488727,-1.49596 -0.2688,-0.76715 -0.415419,-1.08679 l -0.525383,1.87952 q -0.720872,2.58275 -1.050763,3.54169 -0.01222,0.0256 -0.07331,0.17899 -0.04886,0.16623 -0.183273,0.24294 -0.1344,0.0895 -0.354328,0.0895 -0.04886,0 -0.207709,-0.66487 -0.146618,-0.66487 -0.305454,-1.47036 -0.4032,-1.82839 -0.427637,-1.93068 -0.293236,-1.25302 -0.488727,-1.87953 -0.183273,-0.62651 -0.329893,-0.75435 -0.207709,-0.16623 -0.207709,-0.35802 0,-0.0895 0.122182,-0.19179 0.134399,-0.11513 0.305456,-0.11513 0.146618,0 0.232145,0.0256 0.08552,0.0128 0.1344,0.10232 0.171055,0.29407 0.659783,2.48046 0.04886,0.16623 0.122181,0.49865 0.256582,1.11237 0.427637,1.91789 0.09775,0.40915 0.158836,0.74157 0.07331,0.31966 0.122182,0.48587 0.01222,-0.11501 0.244363,-0.89501 0.403201,-1.30416 0.623128,-2.21196 0.232147,-0.92058 0.427637,-1.52151 0.195491,-0.61372 0.305454,-0.76716 0.07331,-0.0895 0.195492,-0.15343 0.1344,-0.0767 0.256582,-0.0767 0.08552,0 0.1344,0.0639 0.04886,0.0512 0.08552,0.14065 0.03666,0.0895 0.07331,0.15343 0.122182,0.25573 0.390982,1.07402 0.281018,0.81829 0.500945,1.61102 l 0.171056,0.58815 q 0.390981,1.41923 0.574254,1.8923 0.427637,-0.895 0.586473,-2.99188 0.08552,-0.79273 0.08552,-2.23754 l -0.01222,-1.29136 q 0,-0.16623 0.03666,-0.23015 0.03665,-0.0767 0.171055,-0.0767 0.146618,0 0.281017,0.10233 0.134401,0.0895 0.134401,0.20458 z"
       inkscape:connector-curvature="0" />
    <path
       id="path882-6"
       style="font-style:normal;font-variant:normal;font-weight:normal;font-stretch:normal;font-size:10.58333302px;line-height:1.25;font-family:'Ink Free';-inkscape-font-specification:'Ink Free';letter-spacing:0px;word-spacing:0px;fill:none;fill-opacity:1;stroke:#000000;stroke-width:0.981;stroke-miterlimit:4;stroke-dasharray:none;stroke-opacity:1"
       d="m 46.535225,274.49296 q 0,1.31696 -0.708655,2.51883 -0.708655,1.20186 -1.82051,1.94344 -1.111855,0.74159 -2.248146,0.74159 -0.659782,0 -1.246256,-0.28129 -0.586472,-0.29407 -0.953018,-0.85665 -0.366546,-0.56257 -0.366546,-1.35531 0,-1.3553 0.672,-2.80011 0.672001,-1.45759 1.869383,-2.73617 0.122183,-0.11513 0.232146,-0.15343 0.109964,-0.0383 0.256582,-0.0383 0.122182,0 0.232146,0.0639 0.122181,0.0639 0.122181,0.15343 0,0.0512 -0.04887,0.15343 -0.03665,0.0895 -0.04886,0.11513 0.07331,0 0.171054,-0.0128 0.109964,-0.0256 0.415419,-0.0256 0.354327,0 0.953019,0.12786 0.610909,0.11501 0.891927,0.24293 0.794182,0.37079 1.209601,0.95894 0.415418,0.57537 0.415418,1.24023 z m -0.525382,0.26851 q 0,-0.74158 -0.329891,-1.20187 -0.329891,-0.47308 -0.977455,-0.77994 -0.354328,-0.16622 -0.891928,-0.16622 -0.171054,0 -0.464291,0.0256 l -0.452073,0.0128 q -0.586473,0 -0.586473,-0.25572 0,-0.0895 0.01222,-0.16622 0.01222,-0.0767 0.02444,-0.10232 -0.256581,0 -0.415417,0.15342 -1.001892,1.0868 -1.551711,2.31425 -0.537599,1.22744 -0.537599,2.39095 0,1.08681 0.513164,1.58545 0.525382,0.48586 1.429527,0.48586 1.026328,0 2.003782,-0.61372 0.989674,-0.61372 1.600583,-1.61102 0.623128,-0.99729 0.623128,-2.07131 z"
       inkscape:connector-curvature="0" />
    <path
       id="path884-0"
       style="font-style:normal;font-variant:normal;font-weight:normal;font-stretch:normal;font-size:10.58333302px;line-height:1.25;font-family:'Ink Free';-inkscape-font-specification:'Ink Free';letter-spacing:0px;word-spacing:0px;fill:none;fill-opacity:1;stroke:#000000;stroke-width:0.981;stroke-miterlimit:4;stroke-dasharray:none;stroke-opacity:1"
       d="m 55.574201,278.78902 q 0,0.15343 -0.122182,0.37079 -0.122182,0.21736 -0.256583,0.21736 -0.122181,0 -0.232145,-0.0383 -0.109963,-0.0511 -0.329891,-0.179 -0.769745,-0.47309 -2.016,-0.92058 -0.549818,-0.19179 -1.307345,-0.39636 -0.74531,-0.21736 -1.172946,-0.31966 l 0.08552,1.64939 q 0.01222,0.34521 0.08552,0.57536 0.07331,0.24293 0.07331,0.30686 0,0.14065 -0.134399,0.23015 -0.1344,0.10232 -0.281019,0.10232 -0.183272,0 -0.232145,-0.2685 0,-0.0256 -0.03666,-0.23015 -0.02444,-0.20458 -0.02444,-0.57537 0,-0.24294 -0.04886,-1.03565 -0.01222,-0.2685 -0.02444,-0.51143 -0.01222,-0.25572 -0.01222,-0.44751 -0.03666,-0.0383 -0.09775,-0.0895 -0.04886,-0.0512 -0.08552,-0.14065 -0.03665,-0.11513 -0.06109,-0.24293 -0.02444,-0.12786 -0.02444,-0.19179 0,-0.0895 0.04887,-0.14065 0.04886,-0.0511 0.146617,-0.11513 -0.07331,-3.19647 -0.07331,-3.65676 0,-0.40916 0.01222,-0.75437 0.01221,-0.34522 0.01221,-0.4603 -0.07331,0.0128 -0.439855,0.0639 -0.366545,0.0511 -0.586472,0.10232 -0.781964,0.19179 -1.185164,0.3708 -0.415418,0.16621 -0.794183,0.38358 -0.109964,0.0767 -0.207708,0.12786 -0.109964,0.0384 -0.20771,0.0384 -0.09775,0 -0.171055,-0.0895 -0.07331,-0.10232 -0.07331,-0.24292 0,-0.24294 0.781964,-0.56259 0.781964,-0.31964 1.698328,-0.52422 0.513164,-0.11514 1.307346,-0.19179 0.794182,-0.0895 1.4784,-0.0895 1.172947,0 1.991565,0.2685 0.830837,0.26851 1.246254,0.75438 0.427637,0.48585 0.427637,1.11238 0,0.80551 -0.439855,1.38087 -0.439854,0.57537 -1.172945,0.9973 -0.720873,0.42194 -1.967129,0.95894 -0.317671,0.15343 -0.635344,0.28129 -0.305455,0.12785 -0.415419,0.179 0,0.0767 0.01222,0.11501 1.319565,0.30686 2.602474,0.70322 l 0.256582,0.0767 q 1.331782,0.42193 1.967126,0.66485 0.635347,0.23015 0.635347,0.38358 z m -1.453963,-5.74086 q 0,-0.42193 -0.354328,-0.77994 -0.354327,-0.358 -1.0752,-0.57537 -0.708655,-0.23015 -1.722765,-0.23015 -0.757527,0 -0.953019,0.0256 -0.01222,0.0895 -0.03665,0.42193 -0.01221,0.33244 -0.01221,0.66487 l 0.04886,2.04574 0.04886,1.58545 q 0.109964,-0.0128 0.427637,-0.11501 0.32989,-0.11513 0.549817,-0.21737 1.551711,-0.65207 2.309238,-1.30416 0.769746,-0.66486 0.769746,-1.52151 z"
       inkscape:connector-curvature="0" />
    <path
       id="path886-7"
       style="font-style:normal;font-variant:normal;font-weight:normal;font-stretch:normal;font-size:10.58333302px;line-height:1.25;font-family:'Ink Free';-inkscape-font-specification:'Ink Free';letter-spacing:0px;word-spacing:0px;fill:none;fill-opacity:1;stroke:#000000;stroke-width:0.981;stroke-miterlimit:4;stroke-dasharray:none;stroke-opacity:1"
       d="m 64.371298,273.78974 q 0,0.9973 -0.549818,1.89231 -0.549819,0.89502 -1.783857,2.03296 -0.745309,0.69043 -1.539492,1.30415 -0.781964,0.61373 -1.307345,0.86945 -0.03666,0.14064 -0.109964,0.20457 -0.07331,0.0767 -0.219927,0.0767 -0.109963,0 -0.158836,-0.0511 -0.04886,-0.0383 -0.04886,-0.15343 0,-0.0767 0.04886,-0.6393 0.06109,-0.56258 0.06109,-1.31694 0,-1.27858 -0.03666,-2.31424 -0.02444,-1.20188 -0.02444,-1.68774 0,-0.75437 0.146618,-1.24023 0.109963,-0.30686 0.390981,-0.30686 0.09775,0 0.171055,0.0383 0.08552,0.0383 0.08552,0.11513 -0.01222,0.0639 -0.1344,0.44751 -0.109963,0.38357 -0.109963,0.72879 0,0.95895 0.03666,2.0969 0.02444,1.45759 0.02444,2.02015 0,0.95895 -0.01221,1.15074 0.439855,-0.17901 1.185163,-0.74158 0.757528,-0.56258 1.270692,-1.02288 1.062981,-0.99729 1.551708,-1.79001 0.488729,-0.79273 0.488729,-1.64939 0,-1.03565 -1.246255,-1.41923 -1.234036,-0.38357 -3.237819,-0.38357 -0.610909,0 -1.637236,0.15342 -0.195492,0.0128 -0.61091,0.12786 -0.183273,0.0639 -0.256582,0.0639 -0.09775,0 -0.183273,-0.16623 -0.09775,-0.16621 -0.09775,-0.33242 0,-0.0639 0.08552,-0.11514 0.08552,-0.0639 0.2688,-0.0895 0.733091,-0.10233 1.246255,-0.15343 0.525382,-0.0511 1.221818,-0.0511 2.223711,0 3.616586,0.52422 1.405091,0.52421 1.405091,1.77723 z"
       inkscape:connector-curvature="0" />
    <path
       inkscape:connector-curvature="0"
       id="path880"
       style="font-style:normal;font-variant:normal;font-weight:normal;font-stretch:normal;font-size:10.58333302px;line-height:1.25;font-family:'Ink Free';-inkscape-font-specification:'Ink Free';letter-spacing:0px;word-spacing:0px;fill:#e1f6f9;fill-opacity:1;stroke:none;stroke-width:0.1;stroke-miterlimit:4;stroke-dasharray:none;stroke-opacity:1"
       d="m 36.960885,272.35777 q 0,0.92059 -0.07331,1.96903 -0.07331,1.04844 -0.158837,1.85395 -0.06109,0.69043 -0.232146,1.52153 -0.171054,0.83106 -0.415418,1.43201 -0.244363,0.58815 -0.500945,0.58815 -0.158837,0 -0.366546,-0.57537 -0.207709,-0.57536 -0.5376,-1.68772 l -0.20771,-0.71602 q -0.219927,-0.74158 -0.488727,-1.49595 -0.268799,-0.76715 -0.415418,-1.08679 l -0.525382,1.87952 q -0.720873,2.58275 -1.050764,3.54168 -0.01222,0.0256 -0.07331,0.179 -0.04886,0.16623 -0.183273,0.24294 -0.1344,0.0895 -0.354328,0.0895 -0.04887,0 -0.207709,-0.66486 -0.146619,-0.66488 -0.305455,-1.47038 -0.4032,-1.82839 -0.427636,-1.93068 -0.293237,-1.253 -0.488728,-1.87952 -0.183272,-0.6265 -0.329891,-0.75436 -0.207709,-0.16623 -0.207709,-0.35801 0,-0.0895 0.122182,-0.19179 0.134399,-0.11514 0.305455,-0.11514 0.146618,0 0.232144,0.0256 0.08552,0.0128 0.134401,0.10233 0.171055,0.29407 0.659782,2.48046 0.04887,0.16622 0.122182,0.49864 0.256582,1.11238 0.427637,1.91789 0.09775,0.40915 0.158836,0.74158 0.07331,0.31966 0.122182,0.48587 0.01222,-0.11501 0.244363,-0.89501 0.403201,-1.30417 0.623128,-2.21197 0.232147,-0.92058 0.427638,-1.52151 0.195489,-0.61372 0.305453,-0.76715 0.07331,-0.0895 0.195492,-0.15343 0.134399,-0.0767 0.256583,-0.0767 0.08552,0 0.134399,0.0639 0.04886,0.0512 0.08552,0.14065 0.03666,0.0895 0.07331,0.15344 0.122182,0.25571 0.390981,1.074 0.281019,0.8183 0.500946,1.61103 l 0.171055,0.58815 q 0.390982,1.41923 0.574255,1.89231 0.427636,-0.89502 0.586472,-2.99189 0.08552,-0.79274 0.08552,-2.23754 l -0.01222,-1.29137 q 0,-0.16622 0.03666,-0.23014 0.03666,-0.0767 0.171055,-0.0767 0.146618,0 0.281017,0.10233 0.134401,0.0895 0.134401,0.20458 z" />
    <path
       inkscape:connector-curvature="0"
       id="path882"
       style="font-style:normal;font-variant:normal;font-weight:normal;font-stretch:normal;font-size:10.58333302px;line-height:1.25;font-family:'Ink Free';-inkscape-font-specification:'Ink Free';letter-spacing:0px;word-spacing:0px;fill:#e1f6f9;fill-opacity:1;stroke:none;stroke-width:0.1;stroke-miterlimit:4;stroke-dasharray:none;stroke-opacity:1"
       d="m 46.454226,274.49301 q 0,1.31696 -0.708655,2.51882 -0.708656,1.20188 -1.82051,1.94345 -1.111855,0.74159 -2.248147,0.74159 -0.659781,0 -1.246255,-0.28129 -0.586472,-0.29407 -0.953018,-0.85666 -0.366546,-0.56257 -0.366546,-1.3553 0,-1.35529 0.672,-2.80011 0.672001,-1.45759 1.869383,-2.73617 0.122183,-0.11514 0.232147,-0.15344 0.109963,-0.0383 0.256581,-0.0383 0.122182,0 0.232146,0.0639 0.122181,0.0639 0.122181,0.15343 0,0.0511 -0.04887,0.15343 -0.03665,0.0895 -0.04886,0.11513 0.07331,0 0.171054,-0.0128 0.109964,-0.0256 0.415419,-0.0256 0.354327,0 0.953019,0.12786 0.610909,0.11502 0.891927,0.24293 0.794182,0.3708 1.209601,0.95894 0.415417,0.57537 0.415417,1.24023 z m -0.525382,0.26851 q 0,-0.74158 -0.329891,-1.20187 -0.329891,-0.47308 -0.977455,-0.77994 -0.354328,-0.16622 -0.891927,-0.16622 -0.171056,0 -0.464292,0.0256 l -0.452073,0.0128 q -0.586473,0 -0.586473,-0.25571 0,-0.0895 0.01222,-0.16622 0.01222,-0.0767 0.02444,-0.10233 -0.256582,0 -0.415418,0.15343 -1.001892,1.0868 -1.551711,2.31424 -0.537599,1.22745 -0.537599,2.39096 0,1.0868 0.513163,1.58544 0.525382,0.48588 1.429528,0.48588 1.026328,0 2.003782,-0.61373 0.989674,-0.61372 1.600583,-1.61102 0.623128,-0.9973 0.623128,-2.07132 z" />
    <path
       inkscape:connector-curvature="0"
       id="path884"
       style="font-style:normal;font-variant:normal;font-weight:normal;font-stretch:normal;font-size:10.58333302px;line-height:1.25;font-family:'Ink Free';-inkscape-font-specification:'Ink Free';letter-spacing:0px;word-spacing:0px;fill:#e1f6f9;fill-opacity:1;stroke:none;stroke-width:0.1;stroke-miterlimit:4;stroke-dasharray:none;stroke-opacity:1"
       d="m 55.493203,278.78907 q 0,0.15343 -0.122182,0.37079 -0.122182,0.21735 -0.256583,0.21735 -0.122181,0 -0.232145,-0.0383 -0.109963,-0.0511 -0.329891,-0.17899 -0.769746,-0.47309 -2.016001,-0.92058 -0.549818,-0.19179 -1.307345,-0.39636 -0.745311,-0.21736 -1.172946,-0.31966 l 0.08552,1.64938 q 0.01222,0.34523 0.08552,0.57536 0.07331,0.24294 0.07331,0.30687 0,0.14065 -0.134399,0.23014 -0.1344,0.10233 -0.281019,0.10233 -0.183273,0 -0.232145,-0.2685 0,-0.0256 -0.03666,-0.23015 -0.02444,-0.20458 -0.02444,-0.57536 0,-0.24294 -0.04887,-1.03566 -0.01221,-0.2685 -0.02444,-0.51143 -0.01222,-0.25572 -0.01222,-0.44751 -0.03666,-0.0383 -0.09775,-0.0895 -0.04886,-0.0511 -0.08552,-0.14065 -0.03666,-0.11513 -0.06109,-0.24292 -0.02444,-0.12787 -0.02444,-0.19179 0,-0.0895 0.04886,-0.14065 0.04887,-0.0511 0.146618,-0.11514 -0.07331,-3.19646 -0.07331,-3.65675 0,-0.40915 0.01222,-0.75437 0.01222,-0.34523 0.01222,-0.4603 -0.07331,0.0128 -0.439855,0.0639 -0.366545,0.0512 -0.586473,0.10233 -0.781963,0.1918 -1.185163,0.3708 -0.415419,0.16621 -0.794183,0.38357 -0.109964,0.0767 -0.207708,0.12786 -0.109964,0.0384 -0.20771,0.0384 -0.09775,0 -0.171055,-0.0895 -0.07331,-0.10233 -0.07331,-0.24292 0,-0.24294 0.781965,-0.56259 0.781964,-0.31964 1.698327,-0.52422 0.513164,-0.11513 1.307347,-0.19179 0.794181,-0.0895 1.4784,-0.0895 1.172946,0 1.991565,0.26851 0.830837,0.2685 1.246255,0.75437 0.427637,0.48586 0.427637,1.11237 0,0.80551 -0.439855,1.38088 -0.439855,0.57536 -1.172947,0.9973 -0.720873,0.42193 -1.967128,0.95894 -0.317672,0.15343 -0.635345,0.28129 -0.305454,0.12784 -0.415418,0.179 0,0.0767 0.01222,0.11502 1.319565,0.30686 2.602475,0.70322 l 0.256582,0.0767 q 1.331782,0.42194 1.967127,0.66486 0.635347,0.23015 0.635347,0.38358 z m -1.453965,-5.74085 q 0,-0.42194 -0.354328,-0.77995 -0.354326,-0.35801 -1.075199,-0.57537 -0.708655,-0.23014 -1.722766,-0.23014 -0.757526,0 -0.953017,0.0256 -0.01222,0.0895 -0.03666,0.42194 -0.01222,0.33244 -0.01222,0.66486 l 0.04887,2.04575 0.04886,1.58545 q 0.109963,-0.0128 0.427635,-0.11501 0.329892,-0.11514 0.549819,-0.21736 1.551709,-0.65209 2.309237,-1.30417 0.769746,-0.66486 0.769746,-1.52151 z" />
    <path
       inkscape:connector-curvature="0"
       id="path886"
       style="font-style:normal;font-variant:normal;font-weight:normal;font-stretch:normal;font-size:10.58333302px;line-height:1.25;font-family:'Ink Free';-inkscape-font-specification:'Ink Free';letter-spacing:0px;word-spacing:0px;fill:#e1f6f9;fill-opacity:1;stroke:none;stroke-width:0.1;stroke-miterlimit:4;stroke-dasharray:none;stroke-opacity:1"
       d="m 64.290299,273.78979 q 0,0.9973 -0.549818,1.89231 -0.549819,0.89502 -1.783856,2.03295 -0.745309,0.69045 -1.539492,1.30417 -0.781964,0.61372 -1.307345,0.86944 -0.03666,0.14064 -0.109964,0.20457 -0.07331,0.0767 -0.219927,0.0767 -0.109963,0 -0.158836,-0.0511 -0.04886,-0.0383 -0.04886,-0.15343 0,-0.0767 0.04886,-0.6393 0.06109,-0.56258 0.06109,-1.31694 0,-1.27859 -0.03666,-2.31424 -0.02444,-1.20189 -0.02444,-1.68774 0,-0.75438 0.146618,-1.24024 0.109964,-0.30686 0.390981,-0.30686 0.09775,0 0.171055,0.0383 0.08552,0.0383 0.08552,0.11514 -0.01221,0.0639 -0.1344,0.4475 -0.109963,0.38359 -0.109963,0.7288 0,0.95894 0.03666,2.09689 0.02444,1.45759 0.02444,2.02016 0,0.95894 -0.01222,1.15073 0.439855,-0.179 1.185163,-0.74157 0.757528,-0.56259 1.270692,-1.02288 1.062983,-0.9973 1.55171,-1.79001 0.488727,-0.79274 0.488727,-1.64938 0,-1.03566 -1.246255,-1.41924 -1.234036,-0.38358 -3.237819,-0.38358 -0.610908,0 -1.637236,0.15344 -0.195492,0.0128 -0.61091,0.12785 -0.183273,0.0639 -0.256582,0.0639 -0.09775,0 -0.183273,-0.16622 -0.09775,-0.16622 -0.09775,-0.33243 0,-0.0639 0.08552,-0.11513 0.08552,-0.0639 0.2688,-0.0895 0.733091,-0.10233 1.246255,-0.15344 0.525382,-0.0511 1.221818,-0.0511 2.223711,0 3.616585,0.52422 1.405091,0.52422 1.405091,1.77724 z" />
  </g>
</svg>
